#N canvas 120 39 1101 705 10;
#X declare -lib mrpeach;
#X msg 339 371 disconnect;
#X text 236 452 recebendo;
#X obj 370 552 route /groupclient/ping;
#X obj 370 585 print ping;
#X text 245 547 imprime tudo;
#X text 366 531 imprime só esta rota;
#X text 236 466 da rede;
#X text -34 247 clique nos botoes "connect localhost <port>";
#X text -33 265 para ligar os envios de Osc;
#X obj 299 76 nano/map;
#X floatatom 299 56 5 0 0 0 - - -;
#X obj 299 243 change;
#X text 495 101 útil para mapear valores;
#X text 495 118 de uma escala para outra;
#X text 495 72 PATCH NANO/MAP;
#X text 348 242 só enviar quando o valor for diferente;
#X text 389 272 nome da mensagem;
#X text 381 -33 <-- plugue seu arduino aqui;
#X text -34 221 OSC;
#X text -42 33 abra o terminal e o OscGroupClient com os parâmetros:
;
#X obj 299 398 udpsend;
#X obj 648 -73 import mrpeach;
#X text 552 453 recebendo;
#X text 551 466 de mim mesmo;
#X obj 299 311 packOSC;
#X obj 554 518 unpackOSC;
#X obj 240 523 unpackOSC;
#X msg 340 348 connect localhost 22243;
#X obj 240 491 udpreceive 22244;
#X obj 554 486 udpreceive 9999;
#X msg 537 355 disconnect;
#X obj 600 385 udpsend;
#X msg 535 332 connect localhost 9999;
#X text 356 310 enviar para a rede;
#X obj 554 558 print eu;
#X obj 240 563 print rede;
#X text -42 73 OscGroupClient hiperorganicos.tk 22242 22241 22243 22244
<username> <password> hiperorganicos nano;
#X msg 299 272 send /msg \$1;
#X obj 299 -32 comport 9600;
#X msg 299 -76 devices;
#X msg 367 -75 open 2;
#X msg 419 -75 close 2;
#X obj 299 11 route list;
#X obj 299 -11 nano/convert.ascii2pd CR;
#X obj 299 31 unpack f f;
#X text 534 309 enviar para mim mesmo (conecte packOSC no udpsend)
;
#X connect 0 0 20 0;
#X connect 2 0 3 0;
#X connect 9 0 11 0;
#X connect 10 0 9 0;
#X connect 11 0 37 0;
#X connect 24 0 20 0;
#X connect 25 0 34 0;
#X connect 26 0 35 0;
#X connect 26 0 2 0;
#X connect 27 0 20 0;
#X connect 28 0 26 0;
#X connect 29 0 25 0;
#X connect 30 0 31 0;
#X connect 32 0 31 0;
#X connect 37 0 24 0;
#X connect 38 0 43 0;
#X connect 39 0 38 0;
#X connect 40 0 38 0;
#X connect 41 0 38 0;
#X connect 42 0 44 0;
#X connect 43 0 42 0;
#X connect 44 0 10 0;
