#N canvas 388 39 828 694 10;
#X obj 147 418 dumpOSC 22244;
#X obj 150 357 sendOSC;
#X msg 229 298 disconnect;
#X msg 150 276 connect localhost 22243;
#X obj 414 358 sendOSC;
#X msg 484 301 disconnect;
#X msg 414 276 connect localhost 9999;
#X obj 366 419 dumpOSC 9999;
#X text 52 433 recebendo;
#X text 277 435 recebendo;
#X text 277 449 de mim mesmo;
#X obj 82 517 route /groupclient/ping;
#X obj 82 550 print ping;
#X text 155 444 imprime tudo;
#X text 102 495 imprime só esta rota;
#X obj 147 469 print broadcast;
#X obj 366 464 print localhost;
#X text 147 255 enviar para a rede;
#X text 52 447 da rede;
#X text -73 204 clique nos botoes "connect localhost <port>";
#X text -72 222 para ligar os envios de Osc;
#X obj 299 -34 nano/map;
#X floatatom 299 -74 5 0 0 0 - - -;
#X obj 299 143 change;
#X text 495 -9 útil para mapear valores;
#X text 495 8 de uma escala para outra;
#X text 495 -38 PATCH NANO/MAP;
#X text 348 142 só enviar quando o valor for diferente;
#X text 448 170 nome da mensagem;
#X text 344 -74 <-- plugue seu arduino aqui;
#X text -73 178 OSC;
#X text -76 -78 abra o terminal e o OscGroupClient com os parâmetros:
;
#X obj 271 530 route /cupula/cacto;
#X floatatom 273 562 10 0 0 0 - - -;
#X obj 409 528 route /cupula/olhoseco;
#X floatatom 415 564 10 0 0 0 - - -;
#X msg 299 172 send /cupula/planta1 \$1;
#X msg 150 173 send /cupula/planta2 \$1;
#X text -76 -48 OscGroupClient 146.164.80.55 22242 22241 22243 22244
<username> <password> hiperorganicos funarte2012;
#X connect 0 0 11 0;
#X connect 0 0 32 0;
#X connect 0 0 34 0;
#X connect 0 0 15 0;
#X connect 2 0 1 0;
#X connect 3 0 1 0;
#X connect 5 0 4 0;
#X connect 6 0 4 0;
#X connect 7 0 16 0;
#X connect 11 0 12 0;
#X connect 21 0 23 0;
#X connect 22 0 21 0;
#X connect 23 0 36 0;
#X connect 32 0 33 0;
#X connect 34 0 35 0;
#X connect 36 0 1 0;
#X connect 36 0 4 0;
#X connect 37 0 1 0;
