#N canvas 251 5 932 691 10;
#X declare -lib mrpeach;
#X obj -3 -58 import mrpeach;
#X text 135 -60 recebendo;
#X text 135 -46 da rede;
#X obj 139 11 unpackOSC;
#X obj 139 -21 udpreceive 22244;
#X obj 175 51 print rede;
#X floatatom 272 139 5 0 0 0 - - -;
#X obj 139 103 route /shast/temp;
#X text 176 35 Print all messages;
#X text 146 88 Filter only this route;
#X obj 139 136 print Filtered;
#X connect 3 0 5 0;
#X connect 3 0 7 0;
#X connect 4 0 3 0;
#X connect 7 0 6 0;
#X connect 7 0 10 0;
