#N canvas 233 0 932 691 10;
#X declare -lib mrpeach;
#X msg 87 57 disconnect;
#X floatatom 171 40 5 0 0 0 - - -;
#X obj 171 67 change;
#X obj 171 176 udpsend;
#X obj -3 -58 import mrpeach;
#X obj 171 138 packOSC;
#X obj 171 -56 tgl 15 0 empty empty empty 17 7 0 10 -262144 -1 -1 0
1;
#X obj 171 -10 random 1000;
#X msg 8 -5 connect localhost 22243;
#X msg 171 98 send /george/random \$1;
#X obj 171 17 / 1000;
#X obj 171 -35 metro 300;
#X text 243 -38 Every n miliseconds sends a "bang";
#X text 250 -8 Generates a random number from 0 to the number.;
#X text 214 17 Divides the random number by 1000;
#X text 211 40 Number generated;
#X text 214 68 When the value above change;
#X text 318 97 Send a value for that adress and 1 parameter;
#X text 223 138 Pack the OSC Message;
#X text 200 -57 Click connect then click here to activate;
#X text 6 -23 IP and port to send;
#X text 227 144;
#X text 223 174 Sends the message if connected;
#X connect 0 0 3 0;
#X connect 1 0 2 0;
#X connect 2 0 9 0;
#X connect 5 0 3 0;
#X connect 6 0 11 0;
#X connect 7 0 10 0;
#X connect 8 0 3 0;
#X connect 9 0 5 0;
#X connect 10 0 1 0;
#X connect 11 0 7 0;
