#N canvas 233 22 932 734 10;
#X declare -lib mrpeach;
#X msg 230 456 disconnect;
#X text 229 365 clique nos botoes "connect localhost <port>";
#X text 230 383 para ligar os envios de Osc;
#X obj 171 94 nano/map;
#X floatatom 171 46 5 0 0 0 - - -;
#X obj 171 268 change;
#X text 360 122 útil para mapear valores;
#X text 360 139 de uma escala para outra;
#X text 360 93 PATCH NANO/MAP;
#X text 220 265 só enviar quando o valor for diferente;
#X text 358 299 nome da mensagem;
#X text 212 48 <-- plugue seu arduino aqui;
#X text 229 339 OSC;
#X obj 201 488 udpsend;
#X obj -3 -58 import mrpeach;
#X obj 171 339 packOSC;
#X msg 227 559 disconnect;
#X obj 171 593 udpsend;
#X msg 227 542 connect localhost 9999;
#X text 229 418 enviar para a rede;
#X text 225 520 enviar para mim mesmo;
#X obj 171 -56 tgl 15 0 empty empty empty 17 7 0 10 -262144 -1 -1 0
1;
#X obj 171 -10 random 1000;
#X msg 230 440 connect localhost 22243;
#X text 625 191 recebendo;
#X text 624 204 de mim mesmo;
#X obj 627 256 unpackOSC;
#X obj 627 224 udpreceive 9999;
#X obj 627 296 print eu;
#X text 611 337 recebendo;
#X obj 579 500 route /groupclient/ping;
#X obj 579 533 print ping;
#X text 620 432 imprime tudo;
#X text 591 479 imprime só esta rota;
#X text 611 351 da rede;
#X obj 615 408 unpackOSC;
#X obj 615 448 print rede;
#X obj 615 376 udpreceive 22244;
#X obj 171 -35 metro 2000;
#X obj 171 17 nano/ease;
#X msg 171 299 send /meulogin/meuprocesso \$1;
#X text 200 -57 numeros randomicos só para teste;
#X connect 0 0 13 0;
#X connect 3 0 5 0;
#X connect 4 0 3 0;
#X connect 5 0 40 0;
#X connect 15 0 13 0;
#X connect 15 0 17 0;
#X connect 16 0 17 0;
#X connect 18 0 17 0;
#X connect 21 0 38 0;
#X connect 22 0 39 0;
#X connect 23 0 13 0;
#X connect 26 0 28 0;
#X connect 27 0 26 0;
#X connect 30 0 31 0;
#X connect 35 0 36 0;
#X connect 35 0 30 0;
#X connect 37 0 35 0;
#X connect 38 0 22 0;
#X connect 39 0 4 0;
#X connect 40 0 15 0;
