#N canvas 556 99 781 486 10;
#X declare -lib mrpeach;
#X obj -286 16 import mrpeach;
#X obj -166 267 reson~;
#X obj -166 186 noise~;
#X floatatom -109 187 5 0 0 0 - - -;
#X obj -1 186 line~ 200;
#X obj -164 364 output~;
#X obj -40 53 unpackOSC;
#X floatatom -1 154 5 0 0 0 - - -;
#X floatatom 108 202 5 0 0 0 - - -;
#X obj -40 27 udpreceive 9999;
#X obj -109 105 route /encoder/a;
#X obj -1 107 route /encoder/b;
#X obj 108 105 route /encoder/c;
#X connect 1 0 5 0;
#X connect 1 0 5 1;
#X connect 2 0 1 0;
#X connect 3 0 1 1;
#X connect 4 0 1 2;
#X connect 6 0 10 0;
#X connect 6 0 11 0;
#X connect 6 0 12 0;
#X connect 7 0 4 0;
#X connect 8 0 1 3;
#X connect 9 0 6 0;
#X connect 10 0 3 0;
#X connect 11 0 7 0;
#X connect 12 0 8 0;
