#N canvas 9 113 781 486 10;
#X declare -lib mrpeach;
#X obj -286 16 import mrpeach;
#X obj -127 227 reson~;
#X obj -127 146 noise~;
#X floatatom -109 187 5 0 0 0 - - -;
#X obj -58 186 line~ 200;
#X floatatom 6 186 5 0 0 0 - - -;
#X obj -125 324 output~;
#X obj -39 -1 udpreceive 22244;
#X obj -39 25 unpackOSC;
#X obj -39 62 route /terrario/planta;
#X obj 108 62 route /terrario/luz;
#X obj -68 126 bng 15 250 50 0 empty empty empty 17 7 0 10 -262144
-1 -1;
#X floatatom -31 102 5 0 0 0 - - -;
#X floatatom 82 107 5 0 0 0 - - -;
#X msg 124 370 disconnect;
#X obj 90 406 udpsend;
#X obj 125 324 packOSC;
#X msg 3 253 send /encoder/a \$1;
#X msg 125 253 send /encoder/b \$1;
#X msg 245 253 send /encoder/c \$1;
#X msg 124 354 connect localhost 9999;
#X text 276 353 <= 9999 apenas teste mudar para 22243;
#X obj 43 146 * 200;
#X obj -32 144 * 2000;
#X connect 1 0 6 0;
#X connect 1 0 6 1;
#X connect 2 0 1 0;
#X connect 3 0 1 1;
#X connect 3 0 17 0;
#X connect 4 0 1 2;
#X connect 5 0 1 3;
#X connect 7 0 8 0;
#X connect 8 0 9 0;
#X connect 9 0 11 0;
#X connect 9 0 12 0;
#X connect 10 0 13 0;
#X connect 11 0 3 0;
#X connect 12 0 18 0;
#X connect 12 0 23 0;
#X connect 13 0 19 0;
#X connect 13 0 22 0;
#X connect 14 0 15 0;
#X connect 16 0 15 0;
#X connect 17 0 16 0;
#X connect 18 0 16 0;
#X connect 19 0 16 0;
#X connect 20 0 15 0;
#X connect 22 0 5 0;
#X connect 23 0 4 0;
